<svg width="64" height="64" viewBox="0 0 64 64" fill="none" xmlns="http://www.w3.org/2000/svg">
<rect width="64" height="64" rx="32" fill="#C44900"/>
<path d="M42.6667 33.3333C42.6667 39.9999 38 43.3333 32.4533 45.2666C32.1629 45.365 31.8474 45.3603 31.56 45.2533C26 43.3333 21.3333 39.9999 21.3333 33.3333V23.9999C21.3333 23.6463 21.4738 23.3072 21.7239 23.0571C21.9739 22.8071 22.3131 22.6666 22.6667 22.6666C25.3333 22.6666 28.6667 21.0666 30.9867 19.0399C31.2691 18.7986 31.6285 18.666 32 18.666C32.3715 18.666 32.7309 18.7986 33.0133 19.0399C35.3467 21.0799 38.6667 22.6666 41.3333 22.6666C41.687 22.6666 42.0261 22.8071 42.2762 23.0571C42.5262 23.3072 42.6667 23.6463 42.6667 23.9999V33.3333Z" stroke="#FFFDFD" stroke-width="2.66602" stroke-linecap="round" stroke-linejoin="round"/>
</svg>
