<svg width="65" height="72" viewBox="0 0 65 72" fill="none" xmlns="http://www.w3.org/2000/svg">
<rect x="0.669983" y="8" width="64" height="64" rx="32" fill="#C44900"/>
<path d="M36.67 26.6667H24.67C23.9627 26.6667 23.2844 26.9477 22.7843 27.4478C22.2842 27.9479 22.0033 28.6262 22.0033 29.3334V50.6667C22.0033 51.374 22.2842 52.0523 22.7843 52.5524C23.2844 53.0525 23.9627 53.3334 24.67 53.3334H40.67C41.3772 53.3334 42.0555 53.0525 42.5556 52.5524C43.0557 52.0523 43.3366 51.374 43.3366 50.6667V33.3334L36.67 26.6667Z" stroke="white" stroke-width="2.66602" stroke-linecap="round" stroke-linejoin="round"/>
<path d="M35.3367 26.6667V32.0001C35.3367 32.7073 35.6176 33.3856 36.1177 33.8857C36.6178 34.3858 37.2961 34.6667 38.0033 34.6667H43.3367" stroke="white" stroke-width="2.66602" stroke-linecap="round" stroke-linejoin="round"/>
<path d="M30.0033 36H27.3367" stroke="white" stroke-width="2.66602" stroke-linecap="round" stroke-linejoin="round"/>
<path d="M38.0033 41.3333H27.3367" stroke="white" stroke-width="2.66602" stroke-linecap="round" stroke-linejoin="round"/>
<path d="M38.0033 46.6667H27.3367" stroke="white" stroke-width="2.66602" stroke-linecap="round" stroke-linejoin="round"/>
</svg>
