<svg width="65" height="64" viewBox="0 0 65 64" fill="none" xmlns="http://www.w3.org/2000/svg">
<rect x="0.669998" width="64" height="64" rx="32" fill="#C44900"/>
<path d="M43.3367 29.3334C43.3367 35.9907 35.9513 42.9241 33.4713 45.0654C33.2403 45.2391 32.9591 45.3331 32.67 45.3331C32.3809 45.3331 32.0997 45.2391 31.8687 45.0654C29.3887 42.9241 22.0033 35.9907 22.0033 29.3334C22.0033 26.5044 23.1271 23.7913 25.1275 21.7909C27.1279 19.7906 29.841 18.6667 32.67 18.6667C35.499 18.6667 38.2121 19.7906 40.2125 21.7909C42.2129 23.7913 43.3367 26.5044 43.3367 29.3334Z" stroke="white" stroke-width="2.66602" stroke-linecap="round" stroke-linejoin="round"/>
<path d="M32.67 33.3333C34.8791 33.3333 36.67 31.5424 36.67 29.3333C36.67 27.1241 34.8791 25.3333 32.67 25.3333C30.4609 25.3333 28.67 27.1241 28.67 29.3333C28.67 31.5424 30.4609 33.3333 32.67 33.3333Z" stroke="white" stroke-width="2.66602" stroke-linecap="round" stroke-linejoin="round"/>
</svg>
